<?xml version="1.0" standalone="no"?>
<!DOCTYPE svg PUBLIC "-//W3C//DTD SVG 20010904//EN"
 "http://www.w3.org/TR/2001/REC-SVG-20010904/DTD/svg10.dtd">
<svg version="1.0" xmlns="http://www.w3.org/2000/svg"
 width="260.000000pt" height="260.000000pt" viewBox="0 0 260.000000 260.000000"
 preserveAspectRatio="xMidYMid meet">
<metadata>
Created by potrace 1.14, written by Peter Selinger 2001-2017
</metadata>
<g transform="translate(0.000000,260.000000) scale(0.100000,-0.100000)"
fill="#000000" stroke="none">
<path d="M1237 2384 c-1 -1 -27 -5 -58 -8 -31 -4 -67 -9 -80 -12 -13 -3 -37
-8 -53 -10 -17 -3 -62 -17 -100 -31 -324 -116 -567 -365 -675 -688 -31 -96
-37 -122 -47 -225 -9 -90 -9 -123 0 -214 30 -320 198 -605 466 -792 95 -67
288 -146 407 -168 93 -18 259 -24 328 -12 22 4 54 8 70 11 191 26 432 156 584
314 365 381 405 977 92 1395 -45 60 -197 216 -211 216 -4 0 -19 11 -35 24 -60
52 -285 155 -375 171 -14 3 -34 7 -45 9 -64 13 -259 27 -268 20z"/>
</g>
</svg>
